<?xml version="1.0" ?><svg id="Layer_1" style="enable-background:new 0 0 400 400;" version="1.1" viewBox="0 0 400 400" xml:space="preserve" xmlns="http://www.w3.org/2000/svg" xmlns:xlink="http://www.w3.org/1999/xlink"><style type="text/css">
	.st0{fill:#FFFFFF;}
	.st1{fill:#333333;}
	.st2{fill:none;stroke:#333333;stroke-width:10;stroke-miterlimit:10;}
	.st3{fill:none;stroke:#333333;stroke-width:20;stroke-miterlimit:10;}
	.st4{fill:none;stroke:#333333;stroke-width:10;stroke-linecap:round;stroke-linejoin:round;stroke-miterlimit:10;}
</style><g><path class="st1" d="M200,50c-82.7,0-150,67.3-150,150s67.3,150,150,150s150-67.3,150-150S282.7,50,200,50z M302.2,119.8   c-5.5,3.7-15.9,7.8-31,11.1c-3.4-11.5-7.8-22.2-13-31.7c-4.6-8.4-9.6-15.7-15-21.8C266.7,85.7,287.1,100.6,302.2,119.8z    M180.5,71.5c4.8-0.7,9.6-1.2,14.5-1.4v67.4c-21.8-0.2-40.2-1.9-55.2-4.4c3.2-10.5,7.2-20.3,12-29.1   C160.1,88.6,169.9,77.6,180.5,71.5z M205,70.1c5.5,0.2,10.9,0.8,16.2,1.6c10.4,6.2,20.1,17.1,28.2,32.2c4.7,8.7,8.7,18.4,11.9,28.9   c-15.1,2.6-34,4.4-56.4,4.7V70.1z M158.6,76.8C153,83,147.7,90.4,143,99.2c-5.2,9.6-9.6,20.4-13.1,32c-15.7-3.3-26.5-7.5-32.2-11.4   C113.3,100.1,134.4,84.9,158.6,76.8z M97.8,280.2c5.7-3.8,16.5-8,32.2-11.4c3.5,11.6,7.8,22.3,13.1,32c4.7,8.7,9.9,16.2,15.6,22.4   C134.4,315.1,113.3,299.9,97.8,280.2z M221.2,328.3c-5.3,0.9-10.7,1.4-16.2,1.6v-67.4c22.4,0.2,41.3,2,56.4,4.7   c-3.2,10.4-7.2,20.2-11.9,28.9C241.3,311.1,231.7,322.1,221.2,328.3z M195,329.9c-4.9-0.2-9.7-0.6-14.5-1.4   c-10.6-6.1-20.4-17.2-28.7-32.5c-4.7-8.8-8.8-18.6-12-29.1c14.9-2.5,33.4-4.2,55.2-4.4V329.9z M243.3,322.6   c5.4-6.1,10.4-13.3,15-21.8c5.2-9.6,9.5-20.2,13-31.7c15.1,3.3,25.5,7.4,31,11.1C287.1,299.4,266.7,314.3,243.3,322.6z    M308.1,272.1C308.1,272.2,308.1,272.2,308.1,272.1c-6.1-4.3-15.4-8-27.7-11.1c-2.1-0.5-4.3-1-6.5-1.5c0,0,0,0,0,0   c1.8-7.4,3.3-15.1,4.5-22.9h-10.1c-1.1,7.2-2.5,14.3-4.2,21c0,0,0,0,0,0c-17.4-3-37.7-4.8-59.1-5v-16h-10v16   c-20.8,0.2-40.7,1.9-57.8,4.8c0,0,0,0,0,0c-1.7-6.7-3.1-13.7-4.1-20.8h-10.1c1.1,7.8,2.6,15.4,4.4,22.7c0,0,0,0,0,0   c-2.7,0.6-5.2,1.2-7.7,1.8c-12.4,3.1-21.6,6.9-27.7,11.1c0,0,0,0,0,0c-13-19.4-20.9-42.4-21.8-67.1H106v-10H70.1   c0.9-24.8,8.8-47.8,21.8-67.2c0,0,0,0,0,0c6.1,4.3,15.3,8,27.7,11.1c2.5,0.6,5.1,1.2,7.7,1.8c0,0,0,0,0,0   c-1.8,7.3-3.3,14.9-4.4,22.7H133c1.1-7.1,2.4-14.1,4.1-20.8c0,0,0,0,0,0c17.1,2.9,37,4.6,57.8,4.8v16h10v-16   c21.3-0.2,41.7-2,59.1-5c0,0,0,0,0,0c1.7,6.8,3.1,13.8,4.2,21h10.1c-1.1-7.9-2.6-15.5-4.5-22.9c0,0,0,0,0,0c2.2-0.5,4.4-1,6.5-1.5   c12.4-3.1,21.6-6.9,27.7-11.1c0,0,0,0,0,0c13,19.4,20.9,42.4,21.8,67.2H294v10h35.9C329,229.8,321.1,252.8,308.1,272.1z"/><polygon class="st1" points="152.9,205.3 152.8,205.3 145.9,180.2 137.7,180.2 130.6,205.8 130.5,205.8 126.1,180.2 114,180.2    123.9,221.9 134.8,221.9 141.7,198.5 141.8,198.5 148.7,221.9 159.7,221.9 169.5,180.2 157.5,180.2  "/><polygon class="st1" points="210.2,205.3 210.1,205.3 203.1,180.2 194.9,180.2 187.9,205.8 187.8,205.8 183.3,180.2 171.3,180.2    181.1,221.9 192.1,221.9 199,198.5 199.1,198.5 205.9,221.9 217,221.9 226.8,180.2 214.7,180.2  "/><polygon class="st1" points="267.4,205.3 267.3,205.3 260.4,180.2 252.2,180.2 245.2,205.8 245,205.8 240.6,180.2 228.5,180.2    238.4,221.9 249.4,221.9 256.2,198.5 256.3,198.5 263.2,221.9 274.2,221.9 284,180.2 272,180.2  "/></g></svg>